<svg id="Layer_3" height="512" viewBox="0 0 64 64" width="512" xmlns="http://www.w3.org/2000/svg" data-name="Layer 3"><path d="m24 53a3 3 0 1 0 3 3 3 3 0 0 0 -3-3zm0 4a1 1 0 1 1 1-1 1 1 0 0 1 -1 1z"/><path d="m55.248 29a3.751 3.751 0 0 0 -2.769 1.22l-5.441 4.592a2.978 2.978 0 0 0 -2.038-.812h-6.431a4.59 4.59 0 0 0 -3.8-2h-1.298a9.319 9.319 0 0 0 -6.632 2.747l-1.253 1.253h-6.586v-2h-2v13h2v-2h22v4h-34v-40h34v4.764a10.879 10.879 0 0 0 -3-.713v-2.051h-2v2.051a11.01 11.01 0 0 0 -10 10.949h-1a1 1 0 0 0 -1 1v4a1 1 0 0 0 1 1h24a1 1 0 0 0 1-1v-4a1 1 0 0 0 -1-1h-1a11 11 0 0 0 -5-9.208v-8.792a5.006 5.006 0 0 0 -5-5h-28a5.006 5.006 0 0 0 -5 5v52a5.006 5.006 0 0 0 5 5h28a5.006 5.006 0 0 0 5-5v-13h3a7.75 7.75 0 0 0 5.75-2.561l6.288-6.986a3.752 3.752 0 0 0 .962-2.509v-.192a3.757 3.757 0 0 0 -3.752-3.752zm-7.248-1h-22v-2h22zm-2-4h-18a9 9 0 0 1 18 0zm-36-21h28a3 3 0 0 1 3 3v1h-34v-1a3 3 0 0 1 3-3zm28 58h-28a3 3 0 0 1 -3-3v-7h34v7a3 3 0 0 1 -3 3zm19-28.056a1.754 1.754 0 0 1 -.449 1.172l-6.287 6.984a5.748 5.748 0 0 1 -4.264 1.9h-27v-5h7a1 1 0 0 0 .707-.293l1.546-1.546a7.333 7.333 0 0 1 5.218-2.161h1.293a2.6 2.6 0 0 1 2.336 1.447 1 1 0 0 0 .9.553h7a1 1 0 0 1 0 2h-7v2h7a3 3 0 0 0 3-3 2.931 2.931 0 0 0 -.036-.353l5.858-4.947a1.074 1.074 0 0 0 .108-.105 1.751 1.751 0 0 1 3.07 1.157z"/><path d="m12 24h10v2h-10z"/><path d="m16 19h9v2h-9z"/><path d="m12 19h2v2h-2z"/></svg>